<mxfile host="app.diagrams.net" agent="Mozilla/5.0 (Windows NT 10.0; Win64; x64) AppleWebKit/537.36 (KHTML, like Gecko) Chrome/138.0.0.0 Safari/537.36 Edg/138.0.0.0" version="28.0.5">
  <diagram name="페이지-1" id="LSf1G-oPDong2yc2xEMc">
    <mxGraphModel dx="3505" dy="482" grid="1" gridSize="10" guides="1" tooltips="1" connect="1" arrows="1" fold="1" page="1" pageScale="1" pageWidth="827" pageHeight="1169" math="0" shadow="0">
      <root>
        <mxCell id="0" />
        <mxCell id="1" parent="0" />
        <mxCell id="G7H6iAO3qgnh4qPglECx-9" value="" style="rounded=0;whiteSpace=wrap;html=1;fillColor=light-dark(#FFFFFF,#FFFFFF);" parent="1" vertex="1">
          <mxGeometry x="-640" y="1220" width="1270" height="990" as="geometry" />
        </mxCell>
        <mxCell id="x-kcLSuFVJ4WcSOrK4Yc-6" value="게시글 신고 관리" style="shape=folder;fontStyle=1;spacingTop=10;tabWidth=40;tabHeight=14;tabPosition=left;html=1;whiteSpace=wrap;verticalAlign=top;strokeColor=light-dark(#000000,#000000);align=center;fontFamily=Helvetica;fontSize=12;fontColor=light-dark(#000000,#000000);fillColor=none;" parent="1" vertex="1">
          <mxGeometry x="230" y="1460" width="294" height="210" as="geometry" />
        </mxCell>
        <mxCell id="x-kcLSuFVJ4WcSOrK4Yc-7" value="신고글&amp;nbsp;&lt;div&gt;목록 조회&lt;/div&gt;" style="shape=folder;fontStyle=1;spacingTop=10;tabWidth=40;tabHeight=14;tabPosition=left;html=1;whiteSpace=wrap;verticalAlign=middle;fontSize=12;strokeColor=light-dark(#000000,#000000);align=center;fontFamily=Helvetica;fontColor=light-dark(#000000,#000000);fillColor=none;" parent="1" vertex="1">
          <mxGeometry x="279" y="1545" width="70" height="60" as="geometry" />
        </mxCell>
        <mxCell id="x-kcLSuFVJ4WcSOrK4Yc-8" value="신고글 삭제" style="shape=folder;fontStyle=1;spacingTop=10;tabWidth=40;tabHeight=14;tabPosition=left;html=1;whiteSpace=wrap;verticalAlign=middle;fontSize=12;strokeColor=light-dark(#000000,#000000);align=center;fontFamily=Helvetica;fontColor=light-dark(#000000,#000000);fillColor=none;" parent="1" vertex="1">
          <mxGeometry x="403" y="1506" width="70" height="60" as="geometry" />
        </mxCell>
        <mxCell id="x-kcLSuFVJ4WcSOrK4Yc-10" value="&lt;font style=&quot;color: light-dark(rgb(0, 0, 0), rgb(0, 0, 0));&quot;&gt;개별&amp;nbsp;&lt;/font&gt;&lt;div&gt;&lt;font style=&quot;color: light-dark(rgb(0, 0, 0), rgb(0, 0, 0));&quot;&gt;신고글&amp;nbsp;&lt;span style=&quot;background-color: transparent;&quot;&gt;조회&lt;/span&gt;&lt;/font&gt;&lt;/div&gt;" style="shape=folder;fontStyle=1;spacingTop=10;tabWidth=40;tabHeight=14;tabPosition=left;html=1;whiteSpace=wrap;verticalAlign=middle;fontSize=12;strokeColor=light-dark(#000000,#000000);align=center;fontFamily=Helvetica;fontColor=light-dark(#000000,#000000);fillColor=none;" parent="1" vertex="1">
          <mxGeometry x="403" y="1590" width="70" height="60" as="geometry" />
        </mxCell>
        <mxCell id="x-kcLSuFVJ4WcSOrK4Yc-12" style="edgeStyle=orthogonalEdgeStyle;rounded=0;orthogonalLoop=1;jettySize=auto;html=1;exitX=0;exitY=0;exitDx=70;exitDy=37;exitPerimeter=0;entryX=0;entryY=0;entryDx=0;entryDy=37;entryPerimeter=0;dashed=1;startSize=1;endSize=1;strokeColor=light-dark(#000000,#000000);" parent="1" source="x-kcLSuFVJ4WcSOrK4Yc-7" target="x-kcLSuFVJ4WcSOrK4Yc-8" edge="1">
          <mxGeometry relative="1" as="geometry" />
        </mxCell>
        <mxCell id="x-kcLSuFVJ4WcSOrK4Yc-13" style="edgeStyle=orthogonalEdgeStyle;rounded=0;orthogonalLoop=1;jettySize=auto;html=1;exitX=0;exitY=0;exitDx=70;exitDy=37;exitPerimeter=0;entryX=0;entryY=0;entryDx=0;entryDy=37;entryPerimeter=0;dashed=1;startSize=1;endSize=1;strokeColor=light-dark(#000000,#000000);" parent="1" source="x-kcLSuFVJ4WcSOrK4Yc-7" target="x-kcLSuFVJ4WcSOrK4Yc-10" edge="1">
          <mxGeometry relative="1" as="geometry">
            <mxPoint x="281.30999999999995" y="1571.24" as="sourcePoint" />
            <mxPoint x="281.52" y="1597.52" as="targetPoint" />
          </mxGeometry>
        </mxCell>
        <mxCell id="G7H6iAO3qgnh4qPglECx-6" style="edgeStyle=orthogonalEdgeStyle;rounded=0;orthogonalLoop=1;jettySize=auto;html=1;exitX=0.5;exitY=1;exitDx=0;exitDy=0;exitPerimeter=0;entryX=0.502;entryY=0.068;entryDx=0;entryDy=0;entryPerimeter=0;dashed=1;strokeColor=light-dark(#000000,#000000);align=center;verticalAlign=middle;fontFamily=Helvetica;fontSize=11;fontColor=default;labelBackgroundColor=default;startSize=1;endArrow=classic;endSize=1;" parent="1" source="x-kcLSuFVJ4WcSOrK4Yc-26" target="x-kcLSuFVJ4WcSOrK4Yc-36" edge="1">
          <mxGeometry relative="1" as="geometry" />
        </mxCell>
        <mxCell id="x-kcLSuFVJ4WcSOrK4Yc-26" value="Main" style="shape=folder;fontStyle=1;spacingTop=10;tabWidth=40;tabHeight=14;tabPosition=left;html=1;whiteSpace=wrap;verticalAlign=top;strokeColor=light-dark(#000000,#000000);align=center;fontFamily=Helvetica;fontSize=12;fontColor=light-dark(#000000,#000000);fillColor=none;" parent="1" vertex="1">
          <mxGeometry x="-161" y="1610" width="294" height="210" as="geometry" />
        </mxCell>
        <mxCell id="x-kcLSuFVJ4WcSOrK4Yc-27" value="로그인" style="shape=folder;fontStyle=1;spacingTop=10;tabWidth=40;tabHeight=14;tabPosition=left;html=1;whiteSpace=wrap;verticalAlign=middle;fontSize=12;strokeColor=light-dark(#000000,#000000);align=center;fontFamily=Helvetica;fontColor=light-dark(#000000,#000000);fillColor=none;" parent="1" vertex="1">
          <mxGeometry x="-94" y="1685" width="70" height="60" as="geometry" />
        </mxCell>
        <mxCell id="x-kcLSuFVJ4WcSOrK4Yc-28" value="Main" style="shape=folder;fontStyle=1;spacingTop=10;tabWidth=40;tabHeight=14;tabPosition=left;html=1;whiteSpace=wrap;verticalAlign=middle;fontSize=12;strokeColor=light-dark(#000000,#000000);align=center;fontFamily=Helvetica;fontColor=light-dark(#000000,#000000);fillColor=none;" parent="1" vertex="1">
          <mxGeometry x="-4" y="1685" width="70" height="60" as="geometry" />
        </mxCell>
        <mxCell id="x-kcLSuFVJ4WcSOrK4Yc-29" style="edgeStyle=orthogonalEdgeStyle;rounded=0;orthogonalLoop=1;jettySize=auto;html=1;exitX=0;exitY=0;exitDx=70;exitDy=37;exitPerimeter=0;entryX=0;entryY=0;entryDx=0;entryDy=37;entryPerimeter=0;dashed=1;startSize=1;endSize=1;strokeColor=light-dark(#000000,#000000);" parent="1" source="x-kcLSuFVJ4WcSOrK4Yc-27" target="x-kcLSuFVJ4WcSOrK4Yc-28" edge="1">
          <mxGeometry relative="1" as="geometry" />
        </mxCell>
        <mxCell id="x-kcLSuFVJ4WcSOrK4Yc-34" value="회원 관리" style="shape=folder;fontStyle=1;spacingTop=10;tabWidth=40;tabHeight=14;tabPosition=left;html=1;whiteSpace=wrap;verticalAlign=top;strokeColor=light-dark(#000000,#000000);fillColor=none;fontColor=light-dark(#000000,#000000);" parent="1" vertex="1">
          <mxGeometry x="-159" y="1320" width="294" height="210" as="geometry" />
        </mxCell>
        <mxCell id="Hua-cuR9yvsWDP6GjIzE-2" style="edgeStyle=orthogonalEdgeStyle;shape=connector;rounded=0;orthogonalLoop=1;jettySize=auto;html=1;dashed=1;strokeColor=light-dark(#000000,#000000);align=center;verticalAlign=middle;fontFamily=Helvetica;fontSize=11;fontColor=default;labelBackgroundColor=default;startSize=1;endArrow=classic;endSize=1;" edge="1" parent="1" source="x-kcLSuFVJ4WcSOrK4Yc-35" target="x-kcLSuFVJ4WcSOrK4Yc-45">
          <mxGeometry relative="1" as="geometry" />
        </mxCell>
        <mxCell id="x-kcLSuFVJ4WcSOrK4Yc-35" value="회원&amp;nbsp;&lt;div&gt;목록 조회&lt;/div&gt;" style="shape=folder;fontStyle=1;spacingTop=10;tabWidth=40;tabHeight=14;tabPosition=left;html=1;whiteSpace=wrap;verticalAlign=middle;fontSize=12;strokeColor=light-dark(#000000,#000000);align=center;fontFamily=Helvetica;fontColor=light-dark(#000000,#000000);fillColor=none;" parent="1" vertex="1">
          <mxGeometry x="-110" y="1395" width="70" height="60" as="geometry" />
        </mxCell>
        <mxCell id="x-kcLSuFVJ4WcSOrK4Yc-36" value="결제 관리" style="shape=folder;fontStyle=1;spacingTop=10;tabWidth=40;tabHeight=14;tabPosition=left;html=1;whiteSpace=wrap;verticalAlign=top;strokeColor=light-dark(#000000,#000000);align=center;fontFamily=Helvetica;fontSize=12;fontColor=light-dark(#000000,#000000);fillColor=none;" parent="1" vertex="1">
          <mxGeometry x="-161" y="1900" width="294" height="210" as="geometry" />
        </mxCell>
        <mxCell id="Hua-cuR9yvsWDP6GjIzE-5" style="edgeStyle=orthogonalEdgeStyle;shape=connector;rounded=0;orthogonalLoop=1;jettySize=auto;html=1;dashed=1;strokeColor=light-dark(#000000,#000000);align=center;verticalAlign=middle;fontFamily=Helvetica;fontSize=11;fontColor=default;labelBackgroundColor=default;startSize=1;endArrow=classic;endSize=1;" edge="1" parent="1" source="x-kcLSuFVJ4WcSOrK4Yc-37" target="Hua-cuR9yvsWDP6GjIzE-3">
          <mxGeometry relative="1" as="geometry" />
        </mxCell>
        <mxCell id="x-kcLSuFVJ4WcSOrK4Yc-37" value="결제 목록&amp;nbsp;&lt;div&gt;조회&lt;/div&gt;" style="shape=folder;fontStyle=1;spacingTop=10;tabWidth=40;tabHeight=14;tabPosition=left;html=1;whiteSpace=wrap;verticalAlign=middle;fontSize=12;strokeColor=light-dark(#000000,#000000);align=center;fontFamily=Helvetica;fontColor=light-dark(#000000,#000000);fillColor=none;" parent="1" vertex="1">
          <mxGeometry x="-100" y="1975" width="70" height="60" as="geometry" />
        </mxCell>
        <mxCell id="x-kcLSuFVJ4WcSOrK4Yc-38" value="서비스 통계" style="shape=folder;fontStyle=1;spacingTop=10;tabWidth=40;tabHeight=14;tabPosition=left;html=1;whiteSpace=wrap;verticalAlign=top;strokeColor=light-dark(#000000,#000000);align=center;fontFamily=Helvetica;fontSize=12;fontColor=light-dark(#000000,#000000);fillColor=none;" parent="1" vertex="1">
          <mxGeometry x="-560" y="1610" width="294" height="210" as="geometry" />
        </mxCell>
        <mxCell id="x-kcLSuFVJ4WcSOrK4Yc-39" value="매출" style="shape=folder;fontStyle=1;spacingTop=10;tabWidth=40;tabHeight=14;tabPosition=left;html=1;whiteSpace=wrap;verticalAlign=middle;fontSize=12;strokeColor=light-dark(#000000,#000000);align=center;fontFamily=Helvetica;fontColor=light-dark(#000000,#000000);fillColor=none;" parent="1" vertex="1">
          <mxGeometry x="-510" y="1685" width="70" height="60" as="geometry" />
        </mxCell>
        <mxCell id="x-kcLSuFVJ4WcSOrK4Yc-40" value="이용자 수" style="shape=folder;fontStyle=1;spacingTop=10;tabWidth=40;tabHeight=14;tabPosition=left;html=1;whiteSpace=wrap;verticalAlign=middle;fontSize=12;strokeColor=light-dark(#000000,#000000);align=center;fontFamily=Helvetica;fontColor=light-dark(#000000,#000000);fillColor=none;" parent="1" vertex="1">
          <mxGeometry x="-390" y="1685" width="70" height="60" as="geometry" />
        </mxCell>
        <mxCell id="x-kcLSuFVJ4WcSOrK4Yc-44" value="회원 정지" style="shape=folder;fontStyle=1;spacingTop=10;tabWidth=40;tabHeight=14;tabPosition=left;html=1;whiteSpace=wrap;verticalAlign=middle;fontSize=12;strokeColor=light-dark(#000000,#000000);align=center;fontFamily=Helvetica;fontColor=light-dark(#000000,#000000);fillColor=none;" parent="1" vertex="1">
          <mxGeometry x="10" y="1370" width="70" height="60" as="geometry" />
        </mxCell>
        <mxCell id="x-kcLSuFVJ4WcSOrK4Yc-45" value="회원 탈퇴" style="shape=folder;fontStyle=1;spacingTop=10;tabWidth=40;tabHeight=14;tabPosition=left;html=1;whiteSpace=wrap;verticalAlign=middle;fontSize=12;strokeColor=light-dark(#000000,#000000);align=center;fontFamily=Helvetica;fontColor=light-dark(#000000,#000000);fillColor=none;" parent="1" vertex="1">
          <mxGeometry x="10" y="1450" width="70" height="60" as="geometry" />
        </mxCell>
        <mxCell id="x-kcLSuFVJ4WcSOrK4Yc-46" value="댓글 신고 관리" style="shape=folder;fontStyle=1;spacingTop=10;tabWidth=40;tabHeight=14;tabPosition=left;html=1;whiteSpace=wrap;verticalAlign=top;strokeColor=light-dark(#000000,#000000);align=center;fontFamily=Helvetica;fontSize=12;fontColor=light-dark(#000000,#000000);fillColor=none;" parent="1" vertex="1">
          <mxGeometry x="229" y="1745" width="294" height="210" as="geometry" />
        </mxCell>
        <mxCell id="x-kcLSuFVJ4WcSOrK4Yc-47" value="신고 댓글&amp;nbsp;&lt;div&gt;목록 조회&lt;/div&gt;" style="shape=folder;fontStyle=1;spacingTop=10;tabWidth=40;tabHeight=14;tabPosition=left;html=1;whiteSpace=wrap;verticalAlign=middle;fontSize=12;strokeColor=light-dark(#000000,#000000);align=center;fontFamily=Helvetica;fontColor=light-dark(#000000,#000000);fillColor=none;" parent="1" vertex="1">
          <mxGeometry x="278" y="1830" width="70" height="60" as="geometry" />
        </mxCell>
        <mxCell id="x-kcLSuFVJ4WcSOrK4Yc-48" value="신고 댓글&amp;nbsp;&lt;div&gt;삭제&lt;/div&gt;" style="shape=folder;fontStyle=1;spacingTop=10;tabWidth=40;tabHeight=14;tabPosition=left;html=1;whiteSpace=wrap;verticalAlign=middle;fontSize=12;strokeColor=light-dark(#000000,#000000);align=center;fontFamily=Helvetica;fontColor=light-dark(#000000,#000000);fillColor=none;" parent="1" vertex="1">
          <mxGeometry x="402" y="1791" width="70" height="60" as="geometry" />
        </mxCell>
        <mxCell id="x-kcLSuFVJ4WcSOrK4Yc-49" value="개별&amp;nbsp;&lt;div&gt;신고 댓글&amp;nbsp;&lt;/div&gt;&lt;div&gt;&lt;span style=&quot;background-color: transparent;&quot;&gt;조회&lt;/span&gt;&lt;/div&gt;" style="shape=folder;fontStyle=1;spacingTop=10;tabWidth=40;tabHeight=14;tabPosition=left;html=1;whiteSpace=wrap;verticalAlign=middle;fontSize=12;strokeColor=light-dark(#000000,#000000);align=center;fontFamily=Helvetica;fontColor=light-dark(#000000,#000000);fillColor=none;" parent="1" vertex="1">
          <mxGeometry x="402" y="1875" width="70" height="60" as="geometry" />
        </mxCell>
        <mxCell id="x-kcLSuFVJ4WcSOrK4Yc-50" style="edgeStyle=orthogonalEdgeStyle;rounded=0;orthogonalLoop=1;jettySize=auto;html=1;exitX=0;exitY=0;exitDx=70;exitDy=37;exitPerimeter=0;entryX=0;entryY=0;entryDx=0;entryDy=37;entryPerimeter=0;dashed=1;startSize=1;endSize=1;strokeColor=light-dark(#000000,#000000);" parent="1" source="x-kcLSuFVJ4WcSOrK4Yc-47" target="x-kcLSuFVJ4WcSOrK4Yc-48" edge="1">
          <mxGeometry relative="1" as="geometry" />
        </mxCell>
        <mxCell id="x-kcLSuFVJ4WcSOrK4Yc-51" style="edgeStyle=orthogonalEdgeStyle;rounded=0;orthogonalLoop=1;jettySize=auto;html=1;exitX=0;exitY=0;exitDx=70;exitDy=37;exitPerimeter=0;entryX=0;entryY=0;entryDx=0;entryDy=37;entryPerimeter=0;dashed=1;startSize=1;endSize=1;strokeColor=light-dark(#000000,#000000);" parent="1" source="x-kcLSuFVJ4WcSOrK4Yc-47" target="x-kcLSuFVJ4WcSOrK4Yc-49" edge="1">
          <mxGeometry relative="1" as="geometry">
            <mxPoint x="280.30999999999995" y="1856.24" as="sourcePoint" />
            <mxPoint x="280.52" y="1882.52" as="targetPoint" />
          </mxGeometry>
        </mxCell>
        <mxCell id="G7H6iAO3qgnh4qPglECx-2" style="edgeStyle=orthogonalEdgeStyle;rounded=0;orthogonalLoop=1;jettySize=auto;html=1;dashed=1;strokeColor=light-dark(#000000,#000000);align=center;verticalAlign=middle;fontFamily=Helvetica;fontSize=11;fontColor=default;labelBackgroundColor=default;startSize=1;endArrow=classic;endSize=1;exitX=0.5;exitY=0.062;exitDx=0;exitDy=0;exitPerimeter=0;entryX=0.495;entryY=1.01;entryDx=0;entryDy=0;entryPerimeter=0;" parent="1" source="x-kcLSuFVJ4WcSOrK4Yc-26" target="x-kcLSuFVJ4WcSOrK4Yc-34" edge="1">
          <mxGeometry relative="1" as="geometry">
            <mxPoint x="-13.98412698412676" y="1613" as="sourcePoint" />
            <mxPoint x="-15" y="1531" as="targetPoint" />
          </mxGeometry>
        </mxCell>
        <mxCell id="G7H6iAO3qgnh4qPglECx-3" style="edgeStyle=orthogonalEdgeStyle;rounded=0;orthogonalLoop=1;jettySize=auto;html=1;dashed=1;strokeColor=light-dark(#000000,#000000);align=center;verticalAlign=middle;fontFamily=Helvetica;fontSize=11;fontColor=default;labelBackgroundColor=default;startSize=1;endArrow=classic;endSize=1;" parent="1" source="x-kcLSuFVJ4WcSOrK4Yc-26" edge="1">
          <mxGeometry relative="1" as="geometry">
            <mxPoint x="-265" y="1715" as="targetPoint" />
          </mxGeometry>
        </mxCell>
        <mxCell id="G7H6iAO3qgnh4qPglECx-4" style="edgeStyle=orthogonalEdgeStyle;rounded=0;orthogonalLoop=1;jettySize=auto;html=1;exitX=0;exitY=0;exitDx=294;exitDy=112;exitPerimeter=0;entryX=0;entryY=0;entryDx=0;entryDy=112;entryPerimeter=0;dashed=1;strokeColor=light-dark(#000000,#000000);align=center;verticalAlign=middle;fontFamily=Helvetica;fontSize=11;fontColor=default;labelBackgroundColor=default;startSize=1;endArrow=classic;endSize=1;" parent="1" source="x-kcLSuFVJ4WcSOrK4Yc-26" target="x-kcLSuFVJ4WcSOrK4Yc-6" edge="1">
          <mxGeometry relative="1" as="geometry" />
        </mxCell>
        <mxCell id="G7H6iAO3qgnh4qPglECx-5" style="edgeStyle=orthogonalEdgeStyle;rounded=0;orthogonalLoop=1;jettySize=auto;html=1;entryX=0;entryY=0;entryDx=0;entryDy=112;entryPerimeter=0;dashed=1;strokeColor=light-dark(#000000,#000000);align=center;verticalAlign=middle;fontFamily=Helvetica;fontSize=11;fontColor=default;labelBackgroundColor=default;startSize=1;endArrow=classic;endSize=1;" parent="1" source="x-kcLSuFVJ4WcSOrK4Yc-26" target="x-kcLSuFVJ4WcSOrK4Yc-46" edge="1">
          <mxGeometry relative="1" as="geometry">
            <Array as="points">
              <mxPoint x="181" y="1722" />
              <mxPoint x="181" y="1857" />
            </Array>
          </mxGeometry>
        </mxCell>
        <mxCell id="Hua-cuR9yvsWDP6GjIzE-1" style="edgeStyle=orthogonalEdgeStyle;shape=connector;rounded=0;orthogonalLoop=1;jettySize=auto;html=1;entryX=0;entryY=0;entryDx=0;entryDy=37;entryPerimeter=0;dashed=1;strokeColor=light-dark(#000000,#000000);align=center;verticalAlign=middle;fontFamily=Helvetica;fontSize=11;fontColor=default;labelBackgroundColor=default;startSize=1;endArrow=classic;endSize=1;" edge="1" parent="1" source="x-kcLSuFVJ4WcSOrK4Yc-35" target="x-kcLSuFVJ4WcSOrK4Yc-44">
          <mxGeometry relative="1" as="geometry" />
        </mxCell>
        <mxCell id="Hua-cuR9yvsWDP6GjIzE-3" value="환불 처리" style="shape=folder;fontStyle=1;spacingTop=10;tabWidth=40;tabHeight=14;tabPosition=left;html=1;whiteSpace=wrap;verticalAlign=middle;fontSize=12;strokeColor=light-dark(#000000,#000000);align=center;fontFamily=Helvetica;fontColor=light-dark(#000000,#000000);fillColor=none;" vertex="1" parent="1">
          <mxGeometry x="10" y="1975" width="70" height="60" as="geometry" />
        </mxCell>
      </root>
    </mxGraphModel>
  </diagram>
</mxfile>
